<svg width="350" height="70" viewBox="0 0 350 70" fill="none" xmlns="http://www.w3.org/2000/svg">
<g clip-path="url(#clip0_2010_39)">
<g filter="url(#filter0_d_2010_39)">
<path d="M319.712 30.8634C319.712 26.4299 319.712 27.3835 319.712 22.8358H350V26.8496V30.8634H319.712Z" fill="white"/>
<path d="M341.682 22.816C346.276 22.816 345.287 22.816 350 22.816V45.8535H345.841H341.682V22.816Z" fill="white"/>
<path d="M350 7.84564C345.406 7.84564 341.682 10.3798 341.682 13.5056V30.8634H350V7.84564Z" fill="white"/>
<path d="M328.058 7.82593C323.448 7.82593 319.712 11.4226 319.712 15.859V30.8543H328.058V7.82593Z" fill="white"/>
<path d="M280.51 15.8755C280.51 11.4404 284.163 7.84515 288.667 7.84515H313.683V15.8755H280.51Z" fill="white"/>
<path d="M305.526 30.8656C310.03 30.8656 313.683 27.2703 313.683 22.8352V7.84519L305.526 7.84515V30.8656Z" fill="white"/>
<path d="M313.683 22.8348C313.683 27.27 310.03 30.8652 305.526 30.8652H280.51V22.8348H313.683Z" fill="white"/>
<path d="M288.669 45.8554C284.163 45.8554 280.51 42.2599 280.51 37.8252V22.835H288.669V45.8554Z" fill="white"/>
<path d="M313.664 45.8563C313.664 41.4212 310.012 37.8259 305.508 37.8259H280.492V45.8563H313.664Z" fill="white"/>
<path d="M273.742 14.418V5.06971C271.7 4.6802 270.067 5.65399 269.863 6.82251V15.976C271.477 15.8301 272.421 15.9288 273.742 14.418Z" fill="white"/>
<path d="M247.173 20.9516V36.5739C243.404 36.5739 240.825 34.6212 240.825 33.2542V26.81C240.825 23.0997 242.611 20.9516 247.173 20.9516Z" fill="white"/>
<path d="M256.58 30.2125V45.9506C260.418 45.9506 263.045 43.9833 263.045 42.6062V36.1143C263.045 32.3764 261.228 30.2125 256.58 30.2125Z" fill="white"/>
<path d="M261.514 26.8534H240.825C240.825 22.9189 242.816 20.9516 245.799 20.9516H256.74C259.922 20.9516 261.244 23.6023 261.514 26.8534Z" fill="white"/>
<path d="M256.572 45.9471V39.9295H241.056C241.056 42.967 242.871 45.7751 246.092 45.9471H256.572Z" fill="white"/>
<path d="M247.179 29.6997V36.5833H263.038C263.038 33.1088 261.183 29.8964 257.892 29.6997H247.179Z" fill="white"/>
<path d="M217.731 27.2589V20.8364H228.017C231.191 20.8364 233.952 23.035 233.952 25.523V35.7065L227.488 28.9368V27.2589H217.731Z" fill="white"/>
<path d="M238.356 39.6981H233.713C232.942 41.9074 230.657 44.6922 227.071 46.1786H233.478C236.476 45.8218 238.18 43.5626 238.356 39.6981Z" fill="white"/>
<path fill-rule="evenodd" clip-rule="evenodd" d="M225.19 46.4114C230.189 46.4114 234.242 42.422 234.242 37.5009C234.242 32.5798 230.189 28.5905 225.19 28.5905C220.191 28.5905 216.141 32.5798 216.141 37.5009C216.141 42.422 220.191 46.4114 225.19 46.4114ZM225.188 41.6662C227.526 41.6662 229.421 39.8011 229.421 37.5003C229.421 35.1995 227.526 33.3342 225.188 33.3342C222.852 33.3342 220.958 35.1995 220.958 37.5003C220.958 39.8011 222.852 41.6662 225.188 41.6662Z" fill="white"/>
<path d="M213.498 5.15603C202.605 5.13674 180.819 5.15603 180.231 5.15603C180.231 9.37986 182.7 13.5458 186.285 13.7773H193.514V46.0634C199.157 46.0634 202.39 42.8812 202.39 39.1202V13.7773H213.498V5.15603Z" fill="white"/>
<path d="M168.709 13.3138C168.533 8.04849 172.471 5.32904 177.702 5.32904L177.643 38.5409C177.643 43.6326 173.587 46.005 168.709 46.005V13.3138Z" fill="white"/>
<path d="M153.493 10.9419C154.962 5.85013 160.135 4.05646 165.777 5.85013L154.786 40.1614C153.363 44.3947 152.262 45.9902 149.673 47.2204L144.736 38.0786L153.493 10.9419Z" fill="white"/>
<path d="M137.018 11.3398C135.403 6.29101 130.181 4.64201 124.592 6.592L136.564 40.5837C137.797 44.0382 138.935 46.352 141.559 47.5098C144.713 48.4583 147.554 48.2618 149.67 47.1626L137.018 11.3398Z" fill="white"/>
<path d="M103.945 27.2589V20.8364H114.23C117.404 20.8364 120.166 23.035 120.166 25.523V35.7065L113.701 28.9368V27.2589H103.945Z" fill="white"/>
<path d="M124.57 39.6981H119.926C119.156 41.9074 116.87 44.6922 113.285 46.1786H119.691C122.689 45.8218 124.393 43.5626 124.57 39.6981Z" fill="white"/>
<path fill-rule="evenodd" clip-rule="evenodd" d="M111.411 46.4114C116.41 46.4114 120.462 42.422 120.462 37.5009C120.462 32.5798 116.41 28.5905 111.411 28.5905C106.412 28.5905 102.359 32.5798 102.359 37.5009C102.359 42.422 106.412 46.4114 111.411 46.4114ZM111.409 41.6662C113.746 41.6662 115.64 39.8011 115.64 37.5003C115.64 35.1995 113.746 33.3342 111.409 33.3342C109.072 33.3342 107.177 35.1995 107.177 37.5003C107.177 39.8011 109.072 41.6662 111.409 41.6662Z" fill="white"/>
<path d="M82.2582 25.8109C82.1476 22.5305 84.6169 20.8362 87.8971 20.8362L87.8601 41.5287C87.8601 44.7011 85.3173 46.179 82.2582 46.179V25.8109Z" fill="white"/>
<path d="M94.3611 31.5982C97.4124 31.5982 99.8859 29.1631 99.8859 26.1593C99.8859 23.1555 97.4124 20.7204 94.3611 20.7204C91.3098 20.7204 88.8363 23.1555 88.8363 26.1593C88.8363 29.1631 91.3098 31.5982 94.3611 31.5982Z" fill="white"/>
<path d="M67.9127 25.8123L77.0816 25.8129C78.4333 25.8123 79.8439 23.4401 79.8439 21.0677H67.9129L67.9127 25.8123Z" fill="white"/>
<path fill-rule="evenodd" clip-rule="evenodd" d="M79.2051 31.9449C79.2051 37.9526 74.258 42.8226 68.1555 42.8226C68.1461 42.8226 68.1369 42.8226 68.1277 42.8226H56.3999C56.3999 40.7201 57.47 38.5599 58.9656 37.9867C57.7909 36.2585 57.1058 34.1804 57.1058 31.9449C57.1058 25.9372 62.0529 21.0672 68.1555 21.0672C74.258 21.0672 79.2051 25.9372 79.2051 31.9449ZM68.1559 37.1528C71.0773 37.1528 73.4456 34.8213 73.4456 31.9453C73.4456 29.0694 71.0773 26.7378 68.1559 26.7378C65.2344 26.7378 62.8661 29.0694 62.8661 31.9453C62.8661 34.8213 65.2344 37.1528 68.1559 37.1528Z" fill="white"/>
<path d="M75.2007 43.6915H56.4518C56.4518 46.411 57.921 48.6676 60.6834 48.6676H79.6675C79.6675 46.0639 78.3158 43.6915 75.2007 43.6915Z" fill="white"/>
<path d="M79.6729 49.4199H63.0985C63.0985 52.255 64.9078 54.3958 67.7675 54.3958H75.8795C78.2723 54.3958 79.6729 52.4863 79.6729 49.4199Z" fill="white"/>
<path fill-rule="evenodd" clip-rule="evenodd" d="M13.2204 40.825L10.7753 40.9222C15.7898 50.9303 25.6964 53.8912 32.8583 45.0027L34.3313 42.8855C39.2843 34.3634 40.112 21.8768 35.0443 11.5581L33.7451 9.4602C31.5796 6.12401 29.9628 4.7576 26.602 2.95316C26.5178 2.54489 26.3615 2.14383 26.1285 1.7676C25.0523 0.0296657 22.7487 -0.520315 20.9834 0.539193C19.218 1.5987 18.6592 3.86647 19.7354 5.6044C20.8117 7.34233 23.1154 7.89231 24.8808 6.83281C25.582 6.4119 26.0929 5.8003 26.3866 5.10699C28.8064 6.54628 29.8876 7.5718 31.5448 9.61595L32.844 11.7139C38.2927 23.3798 36.9256 35.1622 31.824 42.8829L30.1459 44.7808C23.9558 51.3049 16.9087 47.7922 13.2204 40.825ZM24.3053 2.86422C23.844 2.11941 22.8567 1.88369 22.1003 2.33777C21.3437 2.79184 21.1041 3.76375 21.5654 4.50858C22.0267 5.25342 23.0138 5.48912 23.7704 5.03503C24.527 4.58095 24.7665 3.60906 24.3053 2.86422Z" fill="white"/>
<path fill-rule="evenodd" clip-rule="evenodd" d="M17.8301 9.66956L19.0057 7.5866C7.83847 6.60297 0.197796 13.3148 4.13571 23.8455L5.19366 26.1599C9.95434 34.6654 20.2399 41.7822 31.701 42.8816H34.1695C38.1464 42.7987 40.1509 42.1581 43.4291 40.293C43.8221 40.4331 44.2462 40.5092 44.6882 40.5092C46.7332 40.5092 48.3909 38.8772 48.3909 36.864C48.3909 34.8508 46.7332 33.2189 44.6882 33.2189C42.6432 33.2189 40.9854 34.8508 40.9854 36.864C40.9854 37.6642 41.2474 38.4043 41.6915 39.0054C39.2114 40.2759 37.775 40.6467 35.1687 40.9721H32.7C19.8871 39.496 10.4833 32.293 6.48669 24.0768L5.72262 21.7046C3.31284 13.1991 9.95434 9.14885 17.8301 9.66956ZM44.6948 38.4261C45.5711 38.4261 46.2815 37.7267 46.2815 36.8638C46.2815 36.0011 45.5711 35.3017 44.6948 35.3017C43.8182 35.3017 43.1078 36.0011 43.1078 36.8638C43.1078 37.7267 43.8182 38.4261 44.6948 38.4261Z" fill="white"/>
<path fill-rule="evenodd" clip-rule="evenodd" d="M40.7636 28.0498L41.9935 30.0814C48.4148 21.2518 46.3714 11.4884 35.2303 9.46921L32.6859 9.18615C22.9002 8.87469 11.5721 13.8768 4.9035 22.8934L3.67355 24.9548C1.76453 28.3171 1.3241 30.3139 1.31627 33.9905C0.997203 34.2487 0.718375 34.5652 0.497385 34.9356C-0.521526 36.6433 0.0750233 38.8502 1.82983 39.8648C3.58463 40.8796 5.83316 40.3179 6.85205 38.61C7.87096 36.9023 7.27439 34.6954 5.51961 33.6808C4.82304 33.278 4.04868 33.1236 3.30431 33.1907C3.43253 30.4788 3.82491 29.0924 4.84006 26.7516L6.07001 24.6903C13.7407 14.7346 24.7044 10.5121 33.8574 11.3158L36.3058 11.8734C44.9202 14.148 45.1415 21.7356 40.7636 28.0498ZM2.31456 35.9857C1.87787 36.7177 2.13355 37.6634 2.88561 38.0984C3.63766 38.5333 4.60131 38.2924 5.03798 37.5605C5.47467 36.8287 5.21899 35.883 4.46694 35.4481C3.71488 35.0131 2.75123 35.254 2.31456 35.9857Z" fill="white"/>
</g>
<path d="M233.716 67.509C232.779 67.509 232.047 67.2481 231.518 66.7262C230.99 66.2044 230.726 65.4593 230.726 64.4911V60.7942H232.254V64.4345C232.254 65.0632 232.383 65.5159 232.641 65.7926C232.898 66.0692 233.26 66.2075 233.725 66.2075C234.19 66.2075 234.552 66.0692 234.81 65.7926C235.068 65.5159 235.196 65.0632 235.196 64.4345V60.7942H236.705V64.4911C236.705 65.4593 236.441 66.2044 235.913 66.7262C235.385 67.2481 234.653 67.509 233.716 67.509ZM238.215 67.3958V60.7942H239.479L243.374 65.5474H242.761V60.7942H244.27V67.3958H243.015L239.111 62.6426H239.724V67.3958H238.215ZM245.832 67.3958V60.7942H247.359V66.1509H250.67V67.3958H245.832ZM252.929 63.4537H256.107V64.642H252.929V63.4537ZM253.042 66.1698H256.635V67.3958H251.523V60.7942H256.512V62.0202H253.042V66.1698ZM256.983 67.3958L259.925 60.7942H261.434L264.386 67.3958H262.783L260.369 61.5675H260.972L258.548 67.3958H256.983ZM258.454 65.9812L258.86 64.8212H262.255L262.67 65.9812H258.454ZM267.24 67.509C266.712 67.509 266.206 67.4398 265.722 67.3015C265.238 67.1569 264.848 66.9714 264.552 66.7451L265.071 65.5945C265.354 65.7957 265.687 65.9623 266.071 66.0943C266.461 66.2201 266.854 66.283 267.25 66.283C267.551 66.283 267.793 66.2547 267.976 66.1981C268.164 66.1352 268.303 66.0503 268.391 65.9435C268.479 65.8366 268.523 65.714 268.523 65.5757C268.523 65.3996 268.454 65.2613 268.315 65.1607C268.177 65.0538 267.995 64.9689 267.768 64.9061C267.542 64.8369 267.29 64.774 267.014 64.7174C266.743 64.6546 266.47 64.5791 266.193 64.4911C265.923 64.4031 265.675 64.2899 265.448 64.1516C265.222 64.0133 265.036 63.8309 264.892 63.6046C264.754 63.3783 264.684 63.089 264.684 62.737C264.684 62.3597 264.785 62.0171 264.986 61.709C265.194 61.3946 265.502 61.1463 265.91 60.9639C266.325 60.7753 266.844 60.681 267.467 60.681C267.881 60.681 268.29 60.7313 268.693 60.8319C269.095 60.9262 269.45 61.0708 269.758 61.2657L269.287 62.4257C268.979 62.2497 268.671 62.1208 268.362 62.0391C268.054 61.951 267.753 61.907 267.457 61.907C267.162 61.907 266.92 61.9416 266.731 62.0108C266.542 62.0799 266.407 62.1711 266.325 62.2843C266.244 62.3912 266.203 62.5169 266.203 62.6615C266.203 62.8313 266.272 62.9696 266.41 63.0765C266.549 63.1771 266.731 63.2588 266.957 63.3217C267.184 63.3845 267.432 63.4474 267.702 63.5103C267.979 63.5732 268.252 63.6455 268.523 63.7272C268.799 63.8089 269.051 63.919 269.277 64.0573C269.504 64.1956 269.686 64.3779 269.824 64.6043C269.969 64.8306 270.041 65.1167 270.041 65.4625C270.041 65.8334 269.937 66.1729 269.73 66.481C269.522 66.7891 269.211 67.0374 268.796 67.2261C268.388 67.4147 267.869 67.509 267.24 67.509ZM275.612 60.7942H277.14V67.3958H275.612V60.7942ZM272.613 67.3958H271.085V60.7942H272.613V67.3958ZM275.725 64.6891H272.5V63.3971H275.725V64.6891ZM283.013 67.3958V64.6986L283.362 65.6228L280.458 60.7942H282.08L284.306 64.5005H283.372L285.607 60.7942H287.106L284.202 65.6228L284.541 64.6986V67.3958H283.013ZM290.667 67.509C290.145 67.509 289.661 67.4241 289.214 67.2543C288.774 67.0846 288.391 66.8457 288.064 66.5376C287.743 66.2295 287.492 65.868 287.309 65.453C287.133 65.0381 287.045 64.5854 287.045 64.095C287.045 63.6046 287.133 63.1519 287.309 62.737C287.492 62.322 287.746 61.9605 288.073 61.6524C288.4 61.3443 288.784 61.1054 289.224 60.9357C289.664 60.7659 290.142 60.681 290.657 60.681C291.179 60.681 291.657 60.7659 292.091 60.9357C292.531 61.1054 292.911 61.3443 293.232 61.6524C293.559 61.9605 293.814 62.322 293.996 62.737C294.178 63.1456 294.269 63.5983 294.269 64.095C294.269 64.5854 294.178 65.0412 293.996 65.4625C293.814 65.8774 293.559 66.239 293.232 66.547C292.911 66.8488 292.531 67.0846 292.091 67.2543C291.657 67.4241 291.182 67.509 290.667 67.509ZM290.657 66.2075C290.953 66.2075 291.223 66.1572 291.468 66.0566C291.72 65.956 291.94 65.8114 292.129 65.6228C292.317 65.4342 292.462 65.211 292.562 64.9532C292.669 64.6954 292.723 64.4094 292.723 64.095C292.723 63.7806 292.669 63.4946 292.562 63.2368C292.462 62.979 292.317 62.7558 292.129 62.5672C291.946 62.3786 291.729 62.234 291.478 62.1334C291.226 62.0328 290.953 61.9825 290.657 61.9825C290.362 61.9825 290.088 62.0328 289.837 62.1334C289.592 62.234 289.375 62.3786 289.186 62.5672C288.997 62.7558 288.85 62.979 288.743 63.2368C288.642 63.4946 288.592 63.7806 288.592 64.095C288.592 64.4031 288.642 64.6891 288.743 64.9532C288.85 65.211 288.994 65.4342 289.177 65.6228C289.365 65.8114 289.585 65.956 289.837 66.0566C290.088 66.1572 290.362 66.2075 290.657 66.2075ZM298.351 67.509C297.414 67.509 296.681 67.2481 296.153 66.7262C295.625 66.2044 295.361 65.4593 295.361 64.4911V60.7942H296.889V64.4345C296.889 65.0632 297.018 65.5159 297.275 65.7926C297.533 66.0692 297.895 66.2075 298.36 66.2075C298.825 66.2075 299.187 66.0692 299.445 65.7926C299.702 65.5159 299.831 65.0632 299.831 64.4345V60.7942H301.34V64.4911C301.34 65.4593 301.076 66.2044 300.548 66.7262C300.02 67.2481 299.287 67.509 298.351 67.509ZM302.85 67.3958V60.7942H305.707C306.298 60.7942 306.808 60.8916 307.235 61.0865C307.663 61.2752 307.993 61.5487 308.226 61.907C308.458 62.2654 308.574 62.6929 308.574 63.1896C308.574 63.68 308.458 64.1044 308.226 64.4628C307.993 64.8149 307.663 65.0852 307.235 65.2739C306.808 65.4625 306.298 65.5568 305.707 65.5568H303.699L304.378 64.8872V67.3958H302.85ZM307.047 67.3958L305.396 65.0004H307.028L308.697 67.3958H307.047ZM304.378 65.057L303.699 64.3402H305.623C306.094 64.3402 306.446 64.2396 306.679 64.0384C306.911 63.8309 307.028 63.548 307.028 63.1896C307.028 62.825 306.911 62.542 306.679 62.3409C306.446 62.1397 306.094 62.0391 305.623 62.0391H303.699L304.378 61.3129V65.057ZM315.643 67.509C315.122 67.509 314.641 67.4272 314.2 67.2638C313.767 67.094 313.386 66.8551 313.059 66.547C312.739 66.239 312.487 65.8774 312.305 65.4625C312.129 65.0475 312.041 64.5917 312.041 64.095C312.041 63.5983 312.129 63.1425 312.305 62.7275C312.487 62.3126 312.742 61.951 313.069 61.643C313.396 61.3349 313.779 61.0991 314.219 60.9357C314.659 60.7659 315.144 60.681 315.672 60.681C316.256 60.681 316.781 60.7785 317.247 60.9734C317.718 61.1683 318.114 61.4512 318.435 61.8222L317.454 62.7275C317.215 62.476 316.954 62.2906 316.671 62.1711C316.388 62.0454 316.08 61.9825 315.747 61.9825C315.427 61.9825 315.134 62.0328 314.87 62.1334C314.606 62.234 314.377 62.3786 314.182 62.5672C313.993 62.7558 313.845 62.979 313.738 63.2368C313.638 63.4946 313.587 63.7806 313.587 64.095C313.587 64.4031 313.638 64.686 313.738 64.9438C313.845 65.2016 313.993 65.4279 314.182 65.6228C314.377 65.8114 314.603 65.956 314.861 66.0566C315.125 66.1572 315.414 66.2075 315.728 66.2075C316.03 66.2075 316.322 66.1604 316.605 66.0661C316.895 65.9655 317.174 65.7988 317.445 65.5662L318.312 66.6696C317.954 66.94 317.536 67.1475 317.058 67.2921C316.587 67.4367 316.115 67.509 315.643 67.509ZM316.917 66.4716V63.9913H318.312V66.6696L316.917 66.4716ZM321.137 63.4537H324.315V64.642H321.137V63.4537ZM321.25 66.1698H324.843V67.3958H319.732V60.7942H324.721V62.0202H321.25V66.1698ZM326.059 67.3958V60.7942H327.322L331.217 65.5474H330.604V60.7942H332.113V67.3958H330.859L326.955 62.6426H327.568V67.3958H326.059ZM333.675 67.3958V60.7942H335.203V67.3958H333.675ZM339.703 67.509C338.766 67.509 338.034 67.2481 337.505 66.7262C336.977 66.2044 336.713 65.4593 336.713 64.4911V60.7942H338.241V64.4345C338.241 65.0632 338.37 65.5159 338.628 65.7926C338.885 66.0692 339.247 66.2075 339.712 66.2075C340.177 66.2075 340.539 66.0692 340.797 65.7926C341.055 65.5159 341.183 65.0632 341.183 64.4345V60.7942H342.692V64.4911C342.692 65.4593 342.428 66.2044 341.9 66.7262C341.372 67.2481 340.64 67.509 339.703 67.509ZM346.371 67.509C345.843 67.509 345.337 67.4398 344.853 67.3015C344.369 67.1569 343.979 66.9714 343.683 66.7451L344.202 65.5945C344.485 65.7957 344.818 65.9623 345.202 66.0943C345.592 66.2201 345.985 66.283 346.381 66.283C346.682 66.283 346.925 66.2547 347.107 66.1981C347.295 66.1352 347.434 66.0503 347.522 65.9435C347.61 65.8366 347.654 65.714 347.654 65.5757C347.654 65.3996 347.585 65.2613 347.446 65.1607C347.308 65.0538 347.126 64.9689 346.899 64.9061C346.673 64.8369 346.422 64.774 346.145 64.7174C345.875 64.6546 345.601 64.5791 345.324 64.4911C345.054 64.4031 344.806 64.2899 344.579 64.1516C344.353 64.0133 344.168 63.8309 344.023 63.6046C343.885 63.3783 343.815 63.089 343.815 62.737C343.815 62.3597 343.916 62.0171 344.117 61.709C344.325 61.3946 344.633 61.1463 345.042 60.9639C345.456 60.7753 345.975 60.681 346.598 60.681C347.013 60.681 347.421 60.7313 347.824 60.8319C348.226 60.9262 348.581 61.0708 348.889 61.2657L348.418 62.4257C348.11 62.2497 347.802 62.1208 347.494 62.0391C347.185 61.951 346.884 61.907 346.588 61.907C346.293 61.907 346.051 61.9416 345.862 62.0108C345.673 62.0799 345.538 62.1711 345.456 62.2843C345.375 62.3912 345.334 62.5169 345.334 62.6615C345.334 62.8313 345.403 62.9696 345.541 63.0765C345.68 63.1771 345.862 63.2588 346.088 63.3217C346.315 63.3845 346.563 63.4474 346.833 63.5103C347.11 63.5732 347.384 63.6455 347.654 63.7272C347.931 63.8089 348.182 63.919 348.408 64.0573C348.635 64.1956 348.817 64.3779 348.955 64.6043C349.1 64.8306 349.172 65.1167 349.172 65.4625C349.172 65.8334 349.069 66.1729 348.861 66.481C348.654 66.7891 348.342 67.0374 347.927 67.2261C347.519 67.4147 347 67.509 346.371 67.509Z" fill="white"/>
</g>
<defs>
<filter id="filter0_d_2010_39" x="-20" y="-16" width="390" height="94.3958" filterUnits="userSpaceOnUse" color-interpolation-filters="sRGB">
<feFlood flood-opacity="0" result="BackgroundImageFix"/>
<feColorMatrix in="SourceAlpha" type="matrix" values="0 0 0 0 0 0 0 0 0 0 0 0 0 0 0 0 0 0 127 0" result="hardAlpha"/>
<feOffset dy="4"/>
<feGaussianBlur stdDeviation="10"/>
<feComposite in2="hardAlpha" operator="out"/>
<feColorMatrix type="matrix" values="0 0 0 0 0 0 0 0 0 0 0 0 0 0 0 0 0 0 0.08 0"/>
<feBlend mode="normal" in2="BackgroundImageFix" result="effect1_dropShadow_2010_39"/>
<feBlend mode="normal" in="SourceGraphic" in2="effect1_dropShadow_2010_39" result="shape"/>
</filter>
<clipPath id="clip0_2010_39">
<rect width="350" height="69.3958" fill="white"/>
</clipPath>
</defs>
</svg>
