<svg id="Layer_1" data-name="Layer 1" xmlns="http://www.w3.org/2000/svg" viewBox="0 0 6741.86 1123"><defs><style>.cls-1{fill:#fff;}</style></defs><path class="cls-1" d="M1296.31,0h233c0,22,0,43.94,0,66.57l0,44v2.83q0,47.09,0,94.16v3.11l0,66.81q0,16.38,0,32.76v3.3q0,52.8-.06,105.61,0,54.29-.06,108.56v18.4q0,24.28,0,48.55,0,24.42,0,48.85,0,14.51,0,29,0,9.71,0,19.42,0,5.51,0,11c-.14,40.21,7,76.59,32.38,109l1.35,1.73c3.08,3.88,6.31,7.61,9.65,11.27l1.39,1.53c22.5,24.37,55.16,42.12,88.61,44.47,5,.19,9.91.25,14.87.25h2.1c10.94,0,21.37-.67,32-3.25l2.14-.49c31.35-7.24,58.37-23.85,80.86-46.51l2.25-2.23c28.82-29.93,39.31-71.94,39-112.34-.75-37-15.28-72.51-39.21-100.43l-2.19-2.59A114,114,0,0,0,1776.31,587l-2.93-2.21c-33.16-24-74.8-33.48-115.2-27.35-16.52,2.69-32.83,6.68-49.12,10.46q-10.12,2.34-20.25,4.6l-3.23.74-3,.67-2.53.57c-3.57.67-7.15,1.08-10.75,1.52q0-25.69-.06-51.38,0-11.94,0-23.87,0-10.44,0-20.87c0-3.66,0-7.33,0-11q0-6.22,0-12.43v-2c0-7.94.13-15.88.38-23.82,0-.78,0-1.57.07-2.37q.18-5.67.39-11.32a222.73,222.73,0,0,0-2-37.13c-1.89-14.64-.18-27.61,8.78-39.83,19.53-21.32,57.53-26.27,84.51-30l2.23-.32c9-1.1,18.22-.92,27.33-.93h2.77c14.74,0,29.12.67,43.67,3.25l3,.52c68.23,12.39,135.23,44.3,188.25,89,1.65,1.39,3.33,2.75,5,4.11,8.34,6.82,16,14.37,23.59,22l1.62,1.61A247,247,0,0,1,1978.31,451c1,1.25,2.1,2.49,3.16,3.73,14.32,16.95,26.14,35.86,36.84,55.27.41.74.82,1.48,1.25,2.24,25.73,46.09,40,98.65,46.75,150.76.22,1.72.22,1.72.45,3.48a408.69,408.69,0,0,1-.45,107.52c-.25,1.78-.25,1.78-.51,3.6-10.61,73.12-43,141.07-90.49,197.4l-1.36,1.62c-10,11.87-20.44,23.25-31.39,34.26l-2.12,2.12c-4.55,4.54-9.25,8.82-14.13,13l-3.07,2.67a365.76,365.76,0,0,1-55.93,39.33l-2.39,1.38A339,339,0,0,1,1760.31,1108l-3.52.68c-40.74,7.67-84.22,11.15-125.48,5.32l-3.39-.47c-76.85-11.07-143.65-45.53-200.61-97.53l-2.8-2.51c-9.86-8.93-19.72-18.09-28.32-28.27-1.57-1.85-3.16-3.66-4.77-5.47C1336.33,917.51,1298.27,830.91,1297,747l-.06-3.54-.15-9.59-.09-6.13c-.49-31.47-.52-62.94-.5-94.41V608q0-23.31,0-46.63,0-23,0-46V497.77q0-51.61,0-103.24,0-50.07,0-100.15v-3.13q0-15.56,0-31.13V193.78q0-44.55,0-89.1v-2.55Z"/><path class="cls-1" d="M2474.43,309.75h2.81c70.85.08,138.42,25.25,193.07,70.25l1.66,1.37c11.53,9.52,22.44,19.64,33.06,30.18l4.27,4.22a228.26,228.26,0,0,1,17,19.23q1.39,1.65,2.82,3.29c55.26,63.36,82,145.39,91.18,227.71.12,1,.24,2.11.36,3.19a458.55,458.55,0,0,1-.36,100.81l-.39,3.44c-10,85.17-43.62,164.59-101.44,228.17q-2.2,2.42-4.38,4.88a236,236,0,0,1-22.75,22.75c-2.27,2-4.46,4-6.67,6-6.2,5.59-12.75,10.68-19.37,15.75-.65.49-1.29,1-1.95,1.5-64.57,49.54-142.73,73.32-224.05,63.5-57.52-7.6-113.36-30.64-158-68l-3-2.51c-11.66-9.7-22.59-20-33.34-30.74l-2.56-2.54c-4.89-4.91-9.58-9.92-14.06-15.21l-1.65-1.93c-61.38-72.39-93.12-160.78-98-314.31,4.73-56.06,17.76-110.67,41.62-161.76l1.21-2.62A350,350,0,0,1,2207.31,457l3-4.1a394.77,394.77,0,0,1,29.32-35q2.67-2.9,5.3-5.84c52.34-58.45,127.35-96.4,205.7-101.9C2458.55,309.79,2466.49,309.76,2474.43,309.75ZM2403.31,601l-2,1.82c-27.84,26.14-45.93,71.93-47.22,109.65,0,6.2,1.74,11.56,3.67,17.4l1.09,3.38q1.14,3.53,2.3,7c1.16,3.52,2.3,7.06,3.43,10.59,5.48,17,11.09,34.23,19.56,50l1.25,2.34a106.79,106.79,0,0,0,60.69,50.16c2.07.57,4.16,1.11,6.25,1.62l2.77.68a97.37,97.37,0,0,0,44.23-1.68l3-.81a104.85,104.85,0,0,0,37-20.19l2.79-2.3c23.43-20.22,37.6-50,44.39-79.7l.47-2a171.69,171.69,0,0,0,3.66-37.15v-2a159.59,159.59,0,0,0-3.3-33.78l-.44-2c-8.22-36.51-29.25-69.58-60.84-90.1C2484.16,558.6,2437.74,568.53,2403.31,601Z"/><path class="cls-1" d="M865.37,309.69h3.29c15.75.05,31.12.42,46.65,3.31l3.39.6c56.73,10.23,110.3,34.58,152.81,73.85,2.1,1.91,4.22,3.77,6.38,5.62,5.14,4.48,10,9.29,14.78,14.11q2.34,2.34,4.71,4.66a203,203,0,0,1,15.84,17.58c2,2.47,4.07,4.83,6.2,7.18,4,4.43,7.59,9.07,11.14,13.84l2,2.61a409.83,409.83,0,0,1,26.8,40.95l1.47,2.58c48.11,85.12,62.46,185.11,36.78,341.85A415.71,415.71,0,0,1,1106.31,1005l-1.51,1.68c-10.21,11.34-20.79,22.51-32.49,32.32l-2.74,2.4c-53.64,46.8-123.16,73.66-194.26,75.6l-2.34.07c-46.52,1.11-92.64-8-134.66-28.07l-2.1-1a315.39,315.39,0,0,1-76.32-51.66c-1.41-1.28-2.82-2.54-4.26-3.78-5.67-4.85-11-10-16.26-15.31q-2.24-2.24-4.49-4.45a197,197,0,0,1-15.64-17.4c-1.84-2.28-3.75-4.44-5.75-6.59-69.3-77.5-96.79-189.17-93.67-302.8a491.79,491.79,0,0,1,10.49-76c.2-1,.4-1.9.61-2.88A405.24,405.24,0,0,1,615.31,435l2.42-3c6.61-8,13.81-15.46,21.14-22.82l1.46-1.48a216.57,216.57,0,0,1,18.55-16.77c2-1.56,3.86-3.15,5.75-4.8A268.22,268.22,0,0,1,691.31,366l2.07-1.41C732.81,338.11,776,318.64,823.31,312l3.81-.54C839.86,309.8,852.54,309.64,865.37,309.69ZM795.31,600c-10.33,12.25-18.54,25.87-26,40l-1.08,2a154.59,154.59,0,0,0-11,115.86c11.47,35.54,32.67,71.77,66.28,89.85A97.69,97.69,0,0,0,895.31,853a131.37,131.37,0,0,0,16-7l3.13-1.55c34.15-18.35,54.86-56.27,66-92a238.14,238.14,0,0,0,5.75-25.31l.68-3.64.6-3.44.54-3.06c.58-7.13-1.69-13.64-3.78-20.35l-.92-3q-1.49-4.79-3-9.58l-1-3.28c-11.92-39.5-11.92-39.5-34-73.84l-2.15-2.54c-16.56-19.21-39.93-30.75-64.85-34.46C846.56,568,817.36,575.68,795.31,600Z"/><path class="cls-1" d="M5987.31,416l2.88,1.36c30,14.28,57.49,32.48,81.67,55.3,2.06,1.91,4.19,3.75,6.32,5.59a90.65,90.65,0,0,1,9.34,9.66c1.21,1.41,2.45,2.8,3.73,4.15,20.61,21.9,35.69,47.52,42.06,76.94l.5,2.24c8,37.47,3.26,82.6-16.88,115.57-16.66,24.77-40.14,37.91-69,44-36.14,7.06-73.16,3.91-104.37-16.73A223.63,223.63,0,0,1,5916.31,692l-2.69-2.49c-25.24-24.2-38.92-57.27-39.66-92a181.43,181.43,0,0,1,6-48.15l.78-3c3-11.05,6.55-21.86,10.2-32.7,13.75-39,13.75-39,6.38-78.62-7.13-12.15-17.07-19.11-30.59-22.68-19.84-4.22-41.79,0-58.89,10.84C5793,434,5781.9,448.55,5772.31,464l-1.15,1.82c-31.89,51.21-33.5,116.05-38.6,174.3-.1,1.15-.21,2.29-.31,3.46-2.85,32.53-4.29,64.89-4.2,97.54q0,6.84,0,13.67c0,20.15.2,40.14,2.27,60.21.07.73.15,1.47.23,2.22.41,3.88.93,7.74,1.52,11.59l.51,3.45c5.6,36.47,15.16,71.78,26.74,106.74l.69,2.11c7.35,22.15,15,45.15,29.31,63.89l2.1,2.77c22.7,28.73,53.39,44.64,89.44,49.58,50.68,5.57,100-12.49,139.27-43.91,41.7-35.09,65.82-81.51,86.27-131.25q.88-2.13,1.92-4.19a26.3,26.3,0,0,1,9.28,3.18l2.36,1.32,2.42,1.38,2.43,1.35a85.88,85.88,0,0,1,10.51,6.77,196.43,196.43,0,0,1-8,20.69c-.49,1.09-1,2.18-1.47,3.31-23.74,53.1-57.57,102.83-104.53,138l-1.66,1.25c-23.73,17.89-50.28,31.16-78.34,40.75l-2.77,1c-87.1,29.49-188.5,27.74-291-16.33a347.32,347.32,0,0,1-53.19-32.62l-1.65-1.23c-12-9-23.3-18.68-34.35-28.77l-3-2.63a266.67,266.67,0,0,1-35.77-38.65c-1.3-1.74-2.62-3.46-3.94-5.18-39.29-51.69-57.73-113.86-65.34-177.54l-.41-3.3c-10.16-87.87,9.27-178.82,56.41-253.7.67-1.07,1.35-2.14,2-3.25a337,337,0,0,1,32-41.75l1.52-1.69c9-10,18.13-19.65,28.65-28,2.87-2.3,5.66-4.69,8.45-7.08,25.22-21,54.91-37.27,85.38-49.19l2.21-.88C5750.37,371.76,5850.47,368.67,5987.31,416Z"/><path class="cls-1" d="M6703.74,364.19c4.13,2.91,6.64,5.83,7.57,10.81q.12,2.5.12,5v10c0,3.29,0,6.57,0,9.86v10.63q0,9.21,0,18.41,0,13.32,0,26.63,0,21.6,0,43.21,0,21,0,42v15.58q0,53.83,0,107.67h-27a118.57,118.57,0,0,1-4.91-13l-1-3.44-1.11-3.67c-15.69-51.26-35.17-102.22-66.93-145.88l-1.46-2a228.86,228.86,0,0,0-19.09-23.37c-2.05-2.18-4-4.39-5.95-6.66-22.64-26-53.16-46.87-87.5-52.94l-2.23-.39c-21.84-3.08-48.85.36-67.55,12.71A125.24,125.24,0,0,0,6414.31,436l-2.32,2.24c-11.19,11.56-19.51,27.57-20.68,43.76-.07.83-.13,1.67-.19,2.52-.8,19.2,7.39,36.55,20.19,50.48l2.45,2.7c13.84,14.52,31.22,24.84,47.94,35.66q7.85,5.08,15.64,10.22,29.77,19.53,60,38.42l2.69,1.7c10.58,6.65,21.19,13.25,31.9,19.7,28.14,16.94,55.78,35.08,80,57.4,2,1.86,4.11,3.67,6.19,5.47,4.21,3.68,8.21,7.53,12.15,11.48l2.12,2.12a169,169,0,0,1,12.89,14.52c2.21,2.8,4.53,5.48,6.87,8.17,20,24,34.84,53.06,44.3,82.77q.89,2.67,1.9,5.29c3.65,10.16,3.57,19.86,3.52,30.54,0,1.92,0,3.84,0,5.77q0,6,0,12,0,7.7,0,15.38c0,4,0,7.92,0,11.88,0,1.89,0,3.78,0,5.67,0,2.64,0,5.27,0,7.91l0,2.36c-.06,3.54-.18,5.44-2.51,8.19l-2,1.68a30,30,0,0,0-1.9,6.72c-.31,1.35-.63,2.7-.94,4-.16.7-.32,1.4-.48,2.12-3,13.09-6.4,25.74-11.68,38.11l-.91,2.15a158.46,158.46,0,0,1-26.09,41.85l-2.14,2.47c-2.25,2.55-4.55,5-6.86,7.53l-2.2,2.39c-15.49,16.26-35.09,27.84-54.67,38.44q-2.86,1.58-5.7,3.19c-29.06,16.2-61.78,27-94.43,33l-2.86.53a239.51,239.51,0,0,1-84.14-.53l-2.64-.46c-27.2-4.74-53.5-14.76-78.36-26.54l-3.52-1.65c-21.09-9.94-41.76-20.62-62.2-31.84q-22.38-12.26-45.28-23.51c-21.42,23.37-29.36,50.76-30.57,82.06-.14,3.61-.28,7.22-.43,10.94h-31V792a44.24,44.24,0,0,1,10.93-1.25l3.66-.08c5.17.5,7.91,2.61,11.4,6.28,3.89,4.76,5.88,10.24,8.07,15.93l1.42,3.57q1.89,4.8,3.76,9.59,3,7.79,6.09,15.56l1.59,4.07c11,28.05,22.49,56,35.08,83.33l.9,2c17.29,38.27,17.29,38.27,39.1,74l1.25,1.78a158.49,158.49,0,0,0,44.75,42.22l1.95,1.24c32.89,20.6,79.59,30.46,117.65,21.73,17.56-5,32.46-13.74,41.77-29.91,7.73-14.06,10-27.27,9.94-43.18v-2.09c-.09-19.37-3.07-41.52-16.3-56.79a172,172,0,0,0-16-13l-2.31-1.73c-5.52-4.15-11.1-8.22-16.69-12.27l-2.31-1.67q-5.61-4.08-11.25-8.13-4.4-3.15-8.76-6.34c-11.14-8.09-22.41-16-33.73-23.81L6408.67,865l-5.74-4q-7.16-5-14.27-10c-12.06-8.47-24.29-16.64-36.65-24.67-82.28-53.52-82.28-53.52-110.7-90.37l-1.26-1.59c-13.43-16.94-22.88-36-29.74-56.41l-.76-2.21c-18.65-55.83-10.87-120,14.52-172.32,13-26,31.39-49.45,54.24-67.47l2.81-2.22c57-43.94,135.28-61.93,206.26-53.19a244.11,244.11,0,0,1,93.61,33c34.79,22.63,34.79,22.63,74.14,26.76,9.54-3.53,14.43-8.73,18.82-17.79,4.85-10.63,6.35-21.73,6.67-33.31l.07-2.12.18-6.6c0-1.51.09-3,.13-4.52q.16-5.49.31-11C6688.91,363,6696.1,361.55,6703.74,364.19Z"/><path class="cls-1" d="M297.68,295.87h22.47c27.41,0,54.75.57,82.16,1.13V571a95.35,95.35,0,0,1-14.15,1.13H375.78A157.15,157.15,0,0,1,355.31,571c-20-1.29-39.36,4.29-55,17l-2.52,2c-13.71,11.65-22.65,27-27.86,44l-.72,2.36c-3.71,13-4.19,25.84-4.13,39.22v5.23q0,7.14,0,14.29,0,7.71,0,15.44,0,13.36,0,26.73,0,19.33,0,38.67,0,31.41.07,62.8v3.8q0,13.32,0,26.65,0,15.24,0,30.47v3.79q0,31.29.06,62.59,0,19.29,0,38.58,0,13.22,0,26.42c0,5.08,0,10.16,0,15.24q0,7,0,14c0,1.68,0,3.36,0,5,.1,23.9.1,23.9-6.24,32.65-6.67,6.67-14.18,8.22-23.34,8.26l-2.77,0h-3l-9.91,0h-7.13l-19.32,0H175.68l-35.94,0-34.91,0h-13q-44.78,0-89.55-.1-.5-80.91-.81-161.82v-2.43q-.07-26.1-.15-52.21,0-12.81-.08-25.62v-2.57Q1.13,820.18.86,779,.59,736.63.52,694.25q0-6,0-12v-2.39q0-18.9-.22-37.8Q.1,623,.15,603.88c0-6.87,0-13.74-.11-20.61-.47-33,2.88-58.09,19-87.15a178.4,178.4,0,0,0,8.24-17.81c15.89-36.47,34.36-71.79,62.31-100.58,1.2-1.23,2.4-2.48,3.59-3.73a216.56,216.56,0,0,1,32.1-28l1.94-1.38C177.23,309.56,237.27,295.77,297.68,295.87Z"/><path class="cls-1" d="M4985.31,393h355c0,44.81.07,89.63.11,135.8l.09,80,.06,46.9v5.67q.06,45.18.09,90.37,0,46.45.09,92.91,0,6.55,0,13.13v2.61q0,20.77,0,41.54t0,41.81q0,12.4,0,24.81,0,9.29,0,18.57,0,3.75,0,7.48c-.5,32.17-.5,32.17,12.64,60.7,12.69,12.55,31.74,12.32,48.41,13,17.47.74,17.47.74,23.86,6.77,3.43,4.51,3.84,9.47,3.5,15l-2,9h-437l-1-28c10.11-2.25,10.11-2.25,14.68-2.34l3-.09,3.16-.07c29.55,0,29.55,0,55.13-12.5,9.57-12.42,8.64-32.5,9.91-47.55l.16-1.92.51-6.07c.25-2.86.56-5.7.92-8.55a221.73,221.73,0,0,0,1.66-30.26c0-2.9,0-5.81-.05-8.71q0-6.95-.07-13.88-.08-13.56-.08-27.11c0-1.73,0-3.46,0-5.19q0-4,0-8,0-15.84-.07-31.67v-3q0-10.9-.05-21.8V839l-.15-62.87q0-6.84,0-13.68v-3.43q-.08-27.59-.13-55.16-.06-28.51-.13-57,0-15.95-.07-31.87,0-13.54-.07-27.09l0-13.75c0-18.3-.18-36.6-.66-54.9l-.06-2.4a330.87,330.87,0,0,0-4.35-47.66l-.45-2.74c-2.31-12.57-8.42-19.22-18.67-26.45-2.91-1.83-5.87-3.52-8.88-5.19l-2.24-1.28a48.22,48.22,0,0,0-27.26-6.59c-21.59.37-21.59.37-28.62-5.94-3.17-4.16-3.43-7.81-3.32-12.88v-2.06C4983,401.12,4983.85,398.09,4985.31,393Z"/><path class="cls-1" d="M4155.31,32h851v2a35.71,35.71,0,0,1-3.49,3.14c-4.37,3.72-8.54,7.6-12.7,11.55-5.1,4.82-10.21,9.62-15.38,14.37q-7.26,6.68-14.43,13.44-8,7.55-16.13,15-6.32,5.8-12.56,11.68-7.35,6.87-14.85,13.6c-2.88,2.59-5.74,5.21-8.59,7.83-3.91,3.61-7.86,7.16-11.89,10.64-1.46,1.28-2.91,2.6-4.34,3.92-8.66,8-17.48,14.75-28.64,18.82l-2.07.76c-9.06,2.91-17.92,2.6-27.32,2.5l-5.36,0q-7.05,0-14.09-.09-12.53-.1-25.05-.14h-2.7c-16.91-.08-33.8-.05-50.6,2.06-38.22,4.61-72-6-102.38-29.44-6.22-5-12-10.46-17.7-16-10.09-9.58-21.68-20.23-36.47-19.91-8.25,1-13.78,5.2-19.64,10.78a182.16,182.16,0,0,1-24,19c-2.61,1.77-5.15,3.63-7.67,5.54-24.79,18.67-52,30.63-83.41,30.24H4441c-7.95,0-15.76-.56-23.68-1.32-12.11-1.15-24.14-1.31-36.3-1.25h-3.23c-15.09,0-30,.61-45,2-26.5,2.26-48.54-6.28-68.62-23-8.19-7-15.94-14.44-23.74-21.84q-4.89-4.65-9.84-9.24l-1.87-1.74q-6.72-6.27-13.47-12.48-11-10.11-21.85-20.34l-3.85-3.6L4185.73,67c-2.82-2.64-5.65-5.25-8.58-7.76A112.51,112.51,0,0,1,4155.31,34Z"/><path class="cls-1" d="M4586.24,577.81c7.7,3,13.72,8.49,19.91,13.8a244.86,244.86,0,0,0,25.34,19.51c19.85,13,31.87,29.22,37.13,52.26a102,102,0,0,1,1.79,20.17v2.86l0,9.46c0,2.28,0,4.55,0,6.82q0,9.24-.05,18.49,0,7.58,0,15.17-.06,25.74-.15,51.47c0,2.24,0,4.49,0,6.73q-.07,21.11-.14,42.21c0,3.2,0,6.41,0,9.61v2.41q-.08,19.5-.13,39-.06,20.19-.13,40.38,0,11.26-.07,22.53,0,9.55-.07,19.09l0,9.71c-.11,45.61-.11,45.61-20,65.65a183.46,183.46,0,0,1-15.27,13.54c-3.58,2.87-7,5.88-10.48,8.9-4.93,4.3-9.91,8.5-15.05,12.55-2.63,2.08-5.23,4.2-7.82,6.33l-2.75,2.25q-2.91,2.4-5.81,4.81l-2.94,2.44-2.65,2.21a34.28,34.28,0,0,1-6.41,3.85l-3-2.28q-12.26-9.37-24.52-18.72l-8-6.07-4.9-3.73c-24.43-18.61-24.43-18.61-35.76-28.08l-1.61-1.33c-4.52-3.81-8.18-7.5-9.95-13.23l-.7-2.18a59.3,59.3,0,0,1-1.77-14.83l0-3.9c0-1.43,0-2.85,0-4.27l0-4.54q0-6.24-.07-12.49l-.06-10.71q-.3-50.74-.39-101.51l0-13.2v-3.32q-.08-26.6-.26-53.19-.18-27.31-.21-54.62,0-15.34-.14-30.67-.12-13.05-.09-26.11c0-4.44,0-8.88-.07-13.32q-.09-6.09,0-12.2c0-1.47,0-2.93,0-4.4-.28-10.62-.28-10.62,2.89-14.74a66,66,0,0,1,10.11-8.22c2.46-1.72,4.75-3.65,7.06-5.58l2.7-2.19c3.27-2.7,6.47-5.47,9.68-8.25,6.33-5.46,12.85-10.65,19.46-15.77q2.55-2,5.05-4c9.51-7.65,19.48-14.6,29.68-21.32l2.24-1.49,2.14-1.38,1.9-1.23C4583.31,578,4583.31,578,4586.24,577.81Z"/><path class="cls-1" d="M2931.31,563q55.52,8.65,110.81,18.62l8.28,1.49c19.94,3.59,39.81,7.4,59.62,11.63l2.63.56c31.7,6.77,53.54,15.41,73.28,42.15,3.77,5.1,7.64,10.14,11.5,15.17,4.88,6.38,9.67,12.8,14.3,19.36,3,4.29,6.16,8.51,9.33,12.71,11.82,15.69,23.37,31.59,34.85,47.54q9.23,12.81,18.58,25.52,7.23,9.78,14.27,19.68c2.93,4.12,5.9,8.22,8.86,12.32l1.65,2.28q4.24,5.88,8.51,11.73c20,27.42,20,27.42,20,43.16l0,3.59c0,3.26,0,6.52,0,9.78,0,3.47,0,6.94.06,10.42.05,6.64.07,13.28.1,19.92,0,7.32.07,14.65.11,22q.16,26.68.23,53.39c0,1.32,0,2.63,0,4,.07,30.57,0,61.13-.48,91.69l-.18,12.44q-.16,11.94-.35,23.88c-4.73,2-4.73,2-7.16,1.81-3.38-1.48-5.19-4.82-7.28-7.75l-1.58-2.16c-1.67-2.29-3.33-4.6-5-6.9l-3.22-4.43q-4.1-5.64-8.14-11.29l-8.14-11.28-3.25-4.5-1.63-2.25-6.5-9-3.25-4.5q-4-5.61-8.09-11.21-8.33-11.56-16.78-23-9.29-12.57-18.39-25.27L3220.81,965l-3.25-4.5-1.63-2.25-6.5-9-3.25-4.5q-4-5.61-8.09-11.21-8.41-11.7-17-23.29-7.23-9.78-14.27-19.68-11.22-15.77-22.73-31.32-7.23-9.78-14.27-19.68c-4.58-6.45-9.24-12.85-13.87-19.26-1.64-2.26-3.27-4.53-4.9-6.79q-8.32-11.57-16.77-23-9.29-12.57-18.39-25.27L3067.81,754l-3.25-4.5-1.63-2.25-6.5-9-3.25-4.5q-4-5.61-8.09-11.21-8.33-11.56-16.78-23-9.29-12.57-18.39-25.27L3001.81,663l-3.25-4.5-1.63-2.25-6.5-9-3.25-4.5q-4-5.61-8.09-11.21-8.41-11.7-17-23.29-6.6-8.93-13-18c-2.38-3.37-4.8-6.7-7.24-10l-1.81-2.47-3.52-4.77-1.61-2.2-1.45-2A17.76,17.76,0,0,1,2931.31,563Z"/><path class="cls-1" d="M3760.31,562l1,2q-9.93,13.8-20,27.5-6.81,9.21-13.5,18.5-7.56,10.5-15.27,20.89-5.92,8-11.73,16.11-7.56,10.5-15.27,20.89-5.92,8-11.73,16.11c-7.34,10.19-14.81,20.29-22.27,30.4q-10.24,13.86-20.34,27.83c-4.51,6.26-9.08,12.46-13.66,18.66q-5.92,8-11.73,16.11-7.56,10.5-15.27,20.89-5.92,8-11.73,16.11-7.56,10.5-15.27,20.89-5.92,8-11.73,16.11-7.56,10.5-15.27,20.89-5.92,8-11.73,16.11-7.56,10.5-15.27,20.89-5.92,8-11.73,16.11-7.56,10.5-15.27,20.89-5.92,8-11.73,16.11-7.56,10.5-15.27,20.89-5.92,8-11.73,16.11c-7.34,10.19-14.81,20.29-22.27,30.4q-10.24,13.86-20.34,27.83-6.75,9.38-13.64,18.63c-3,4-5.94,8.08-8.85,12.16-.58.82-1.17,1.63-1.76,2.47-1.11,1.54-2.2,3.09-3.29,4.64l-1.51,2.11-1.3,1.84a83.85,83.85,0,0,1-6.54,6.92c-2-20.11-2.26-40-2.17-60.22q0-6.54,0-13.07,0-12.36.06-24.71.06-22.05.1-44.11,0-7.7,0-15.39c.06-17.12-.07-34.2-.81-51.31-2.05-48.59,9-84.9,40.2-122.31,2.45-3,4.82-6,7.18-9l1.36-1.73,2.68-3.44,6.77-8.65,1.37-1.74q5.08-6.47,10.26-12.88,7.34-9.16,14.45-18.49,2.59-3.41,5.21-6.8,12.13-15.82,23.74-32,2.22-3.09,4.49-6.17,7.84-10.69,15.25-21.68l1.4-2.07c2.3-3.44,4.6-6.87,6.89-10.32,12.75-19.13,27.61-31.65,50.35-37.29l2.63-.65c10-2.42,20.21-4.15,30.39-5.9,30.36-5.23,60.56-11.24,90.76-17.31l3.26-.65,30.92-6.24q17.35-3.5,34.72-7l2.29-.46Z"/><path class="cls-1" d="M4092.31,578v524a94.45,94.45,0,0,1-12.75-8.38c-5.35-4.18-10.78-8.24-16.25-12.24q-10.33-7.59-20.5-15.38t-20.25-15.19c-24.57-18-24.57-18-32.57-25.56a100.45,100.45,0,0,0-28.46-19.31c-17.13-7.79-30.15-21.24-36.76-38.87-4.66-13.58-5.76-27.34-5.65-41.63,0-1.3,0-2.61,0-4,.06-7.24.16-14.48.39-21.72.79-24.51.86-49,.78-73.51q0-10.6-.05-21.21,0-30.07-.13-60.17-.06-16.74-.07-33.47,0-10.53-.07-21,0-6.52,0-13.05c0-2,0-4,0-6q0-4.11,0-8.24l0-2.39a34.45,34.45,0,0,1,5.07-18.39c6-5.84,13.23-8.56,21.07-11.15l3.13-1.06c2.21-.76,4.43-1.5,6.65-2.25,5.92-2,11.82-4,17.73-6l3.59-1.23q15.06-5.19,30-10.83l2.32-.88q7.47-2.82,14.92-5.68l13.58-5.19q18.06-6.87,36.1-13.78l5.7-2.18q2.49-.94,5-1.92C4090.09,578,4090.09,578,4092.31,578Z"/><path class="cls-1" d="M4093.31,31V552a68.92,68.92,0,0,1-13.06-4.15l-2.43-1-8-3.25-5.63-2.28q-28-11.4-55.84-23-8.76-3.62-17.53-7.2c-13.69-5.57-27.31-11.25-40.81-17.26l-3.65-1.62c-13.62-6.14-13.62-6.14-18.79-12.14l-1.7-1.92c-3.76-5.12-5.07-9.55-5.12-15.83l-.05-2.28c-.06-2.52-.09-5-.12-7.55,0-1.82-.07-3.65-.1-5.47-.4-23-.37-45.95-.36-68.93V358.9q0-17.13,0-34.28V293.77q0-18.12,0-36.22v-19c0-15.17,0-30.35.14-45.52l0-2.52q.06-7.33.23-14.67l.05-3.32c.3-9.52,2.83-17.65,9.7-24.49,2.78-2.3,5.68-4.41,8.62-6.5l5.13-3.72,2.65-1.9c4.05-2.93,8.07-5.91,12.1-8.88l4.74-3.5,9.54-7q12.67-9.34,25.45-18.57C4004,94,4009.4,90,4014.81,86q12.57-9.28,25.26-18.39,6.75-4.86,13.47-9.73L4065,49.61l4.66-3.36,2.27-1.63c3.38-2.44,6.74-4.89,10.05-7.44l1.68-1.28,4.34-3.39C4090.31,31,4090.31,31,4093.31,31Z"/><path class="cls-1" d="M3753.31,54V555a168.54,168.54,0,0,1-16-6l-1.94-.87-4.13-1.84-11.35-5-2.38-1.05q-12.72-5.64-25.5-11.12l-4.68-2-9.4-4-22.1-9.55-2.21-1q-26.37-11.42-52.71-22.86l-3.38-1.47-6.27-2.72-2.86-1.24-2.47-1.07q-4.8-2.08-9.6-4.13-.14-54.74-.21-109.46,0-6.46,0-12.93c0-.86,0-1.71,0-2.6q0-20.82-.08-41.64-.06-21.39-.07-42.76,0-13.19-.06-26.37,0-9,0-18.09,0-5.22,0-10.44,0-5.66,0-11.33l0-3.29c.09-11.14,2.78-20.46,10.65-28.54,4.66-4.15,9.65-7.82,14.7-11.49,3.91-2.84,7.67-5.83,11.42-8.87,6.58-5.33,13.34-10.42,20.13-15.48q8.36-6.24,16.55-12.65,19.82-15.48,40-30.49c4.59-3.43,9.16-6.91,13.72-10.39q11.83-9.06,23.8-17.93l2.35-1.73c1.44-1.06,2.88-2.1,4.33-3.14,1.61-1.18,3.15-2.47,4.67-3.77C3741.31,54,3741.31,54,3753.31,54Z"/><path class="cls-1" d="M2936.31,50a51.67,51.67,0,0,1,7.59,4.48L2946,56l2.25,1.64,2.39,1.73c7,5.13,13.95,10.41,20.86,15.71q8.31,6.36,16.82,12.44c7.5,5.36,14.84,10.93,22.16,16.54q8.66,6.63,17.52,13c15.84,11.35,15.84,11.35,19.64,15.42a35.88,35.88,0,0,0,12.36,8.52c11.08,5.31,20.51,11.4,29.32,20.06l2.34,2.3c22.23,23.22,25.26,56.52,24.76,87.11-.15,5.15-.49,10.29-.82,15.43-1.26,19.7-1.57,39.34-1.56,59.08,0,5.52,0,11,0,16.55q-.06,23.49-.07,47,0,13.08-.06,26.16,0,8.2,0,16.42c0,3.4,0,6.79,0,10.19,0,1.57,0,3.13,0,4.69.07,12.7-1.34,24.57-10.52,34.1a43.06,43.06,0,0,1-10.52,6.08l-1.95.88c-2.11,1-4.23,1.9-6.35,2.85l-4.49,2-9.24,4.15q-6,2.72-12.05,5.48c-16.25,7.42-32.6,14.56-49,21.54l-5.38,2.29-2.71,1.15q-8.48,3.62-16.9,7.35-5.67,2.52-11.34,5c-1.79.79-3.58,1.58-5.36,2.39q-3.75,1.68-7.51,3.31l-2.14,1c-7.53,3.23-13.2,3.33-22,4.51Z"/><path class="cls-1" d="M4582.25,115.25a21.43,21.43,0,0,1,5.65,3.13l2.09,1.52,2.25,1.66,2.38,1.74c8.87,6.52,17.62,13.2,26.36,19.91,2,1.56,4.05,3.1,6.09,4.64,20.32,15.41,39.43,31.31,43.24,58.15q.12,3.42.11,6.84v2q0,3.27,0,6.55c0,1.56,0,3.11,0,4.67-.06,19.1-.34,38.19-.62,57.29-.59,41.39-.45,82.75,0,124.14q.15,13.5.28,27c0,3.07.07,6.15.1,9.22.07,5.77.11,11.53.16,17.3l0,3.22q0,4.88.06,9.75l0,3c0,13.07-2.14,24.5-11.27,34.37-5.29,5.05-11,8.69-17.31,12.39a100.24,100.24,0,0,0-11.22,8.47C4594,562.6,4594,562.6,4577.56,562c-14.2-2-28.8-13.6-38.94-23.31-3.93-3.69-8.33-5.84-13.15-8.12a58.62,58.62,0,0,1-14.16-9.57l-2.08-1.8c-14.63-13.51-19.17-33.59-20.1-52.8-.06-3.8,0-7.6,0-11.4v-2.12c.07-9.69.19-19.38.41-29.06.62-27.46.85-54.9.83-82.37v-2.53q0-19.34-.06-38.67,0-17-.06-34,0-6.11,0-12.21c0-15,0-30,.33-45.05l0-3.22c.44-13.64,5.95-24.46,15.77-33.84,7-6.42,14.42-12.2,21.94-17.95l4.92-3.79c9.16-7,18.39-14,27.8-20.67,3.45-2.46,6.84-4.95,10.14-7.6l1.81-1.44q2.37-1.92,4.73-3.87C4580.31,115,4580.31,115,4582.25,115.25Z"/><path class="cls-1" d="M5240.31,11l2.42.6c31.67,8.12,59.21,27,76.29,55.19,13.56,23.36,20.24,49.28,21.29,76.21l.16,3.95c1,38.73-11,76.87-37.62,105.44A123.16,123.16,0,0,1,5279.31,272l-1.69,1.05c-31.14,19.2-70,24.82-105.74,17-32.09-7.68-58.72-28.77-75.89-56.66A165.91,165.91,0,0,1,5077.31,188l-.54-2.07c-5.45-21.75-4.57-49.17.54-70.93l.6-2.56c5.5-22.54,15.05-43.86,30.4-61.44l2.48-2.93c10.07-11.59,21.86-20.1,35.52-27.07l1.83-.94C5175.4,6.42,5210.79,3.52,5240.31,11Z"/></svg>